<mxfile host="app.diagrams.net" modified="2024-03-02T18:26:49.516Z" agent="Mozilla/5.0 (Windows NT 10.0; Win64; x64; rv:123.0) Gecko/20100101 Firefox/123.0" etag="oE2Kd4XhGP86cSrSZfZP" version="24.0.1" type="device">
  <diagram name="Page-1" id="cIa879tW9SnME0ddoqcr">
    <mxGraphModel dx="834" dy="1614" grid="1" gridSize="10" guides="1" tooltips="1" connect="1" arrows="1" fold="1" page="1" pageScale="1" pageWidth="827" pageHeight="1169" math="0" shadow="0">
      <root>
        <mxCell id="0" />
        <mxCell id="1" parent="0" />
        <mxCell id="IOv0uIrEUTZNlMerogkg-1" value="Cohort 1&lt;br style=&quot;font-size: 18px;&quot;&gt;d(2)" style="rounded=1;whiteSpace=wrap;html=1;fontSize=18;" parent="1" vertex="1">
          <mxGeometry x="300" y="4" width="120" height="60" as="geometry" />
        </mxCell>
        <mxCell id="IOv0uIrEUTZNlMerogkg-6" value="" style="endArrow=none;html=1;rounded=0;" parent="1" edge="1">
          <mxGeometry width="50" height="50" relative="1" as="geometry">
            <mxPoint x="80" y="1224" as="sourcePoint" />
            <mxPoint x="80" y="184" as="targetPoint" />
          </mxGeometry>
        </mxCell>
        <mxCell id="IOv0uIrEUTZNlMerogkg-7" value="5" style="endArrow=none;html=1;rounded=0;align=right;labelPosition=left;verticalLabelPosition=middle;verticalAlign=middle;" parent="1" edge="1">
          <mxGeometry width="50" height="50" relative="1" as="geometry">
            <mxPoint x="70" y="224" as="sourcePoint" />
            <mxPoint x="80" y="224" as="targetPoint" />
          </mxGeometry>
        </mxCell>
        <mxCell id="IOv0uIrEUTZNlMerogkg-8" value="10" style="endArrow=none;html=1;rounded=0;labelPosition=left;verticalLabelPosition=middle;align=right;verticalAlign=middle;" parent="1" edge="1">
          <mxGeometry width="50" height="50" relative="1" as="geometry">
            <mxPoint x="80" y="274" as="sourcePoint" />
            <mxPoint x="70" y="274" as="targetPoint" />
          </mxGeometry>
        </mxCell>
        <mxCell id="IOv0uIrEUTZNlMerogkg-9" value="15" style="endArrow=none;html=1;rounded=0;labelPosition=left;verticalLabelPosition=middle;align=right;verticalAlign=middle;" parent="1" edge="1">
          <mxGeometry width="50" height="50" relative="1" as="geometry">
            <mxPoint x="70" y="324" as="sourcePoint" />
            <mxPoint x="80" y="324" as="targetPoint" />
          </mxGeometry>
        </mxCell>
        <mxCell id="IOv0uIrEUTZNlMerogkg-10" value="20" style="endArrow=none;html=1;rounded=0;labelPosition=left;verticalLabelPosition=middle;align=right;verticalAlign=middle;" parent="1" edge="1">
          <mxGeometry width="50" height="50" relative="1" as="geometry">
            <mxPoint x="70" y="374" as="sourcePoint" />
            <mxPoint x="80" y="374" as="targetPoint" />
          </mxGeometry>
        </mxCell>
        <mxCell id="IOv0uIrEUTZNlMerogkg-11" value="25" style="endArrow=none;html=1;rounded=0;labelPosition=left;verticalLabelPosition=middle;align=right;verticalAlign=middle;" parent="1" edge="1">
          <mxGeometry width="50" height="50" relative="1" as="geometry">
            <mxPoint x="70" y="424" as="sourcePoint" />
            <mxPoint x="80" y="424" as="targetPoint" />
          </mxGeometry>
        </mxCell>
        <mxCell id="IOv0uIrEUTZNlMerogkg-12" value="30" style="endArrow=none;html=1;rounded=0;labelPosition=left;verticalLabelPosition=middle;align=right;verticalAlign=middle;" parent="1" edge="1">
          <mxGeometry width="50" height="50" relative="1" as="geometry">
            <mxPoint x="70" y="474" as="sourcePoint" />
            <mxPoint x="80" y="474" as="targetPoint" />
          </mxGeometry>
        </mxCell>
        <mxCell id="IOv0uIrEUTZNlMerogkg-23" value="Cohort 2&lt;br style=&quot;border-color: var(--border-color); font-size: 18px;&quot;&gt;d(1)" style="rounded=0;whiteSpace=wrap;html=1;fillColor=#f8cecc;strokeColor=#b85450;fontSize=18;" parent="1" vertex="1">
          <mxGeometry x="88" y="104" width="120" height="60" as="geometry" />
        </mxCell>
        <mxCell id="IOv0uIrEUTZNlMerogkg-24" value="Cohort 2&lt;br style=&quot;font-size: 18px;&quot;&gt;d(1)&lt;br style=&quot;font-size: 18px;&quot;&gt;1-35" style="rounded=0;whiteSpace=wrap;html=1;fillColor=#f8cecc;strokeColor=#b85450;fontSize=18;" parent="1" vertex="1">
          <mxGeometry x="229" y="174" width="120" height="350" as="geometry" />
        </mxCell>
        <mxCell id="IOv0uIrEUTZNlMerogkg-26" value="Cohort 2&lt;br style=&quot;font-size: 18px;&quot;&gt;d(5)&lt;br style=&quot;font-size: 18px;&quot;&gt;22-105" style="rounded=0;whiteSpace=wrap;html=1;fillColor=#d5e8d4;strokeColor=#82b366;fontSize=18;" parent="1" vertex="1">
          <mxGeometry x="510" y="394" width="120" height="830" as="geometry" />
        </mxCell>
        <mxCell id="IOv0uIrEUTZNlMerogkg-36" value="Cohort 2&lt;br style=&quot;font-size: 18px;&quot;&gt;d(4)&lt;br style=&quot;font-size: 18px;&quot;&gt;2-19" style="rounded=0;whiteSpace=wrap;html=1;fillColor=#dae8fc;strokeColor=#6c8ebf;fontSize=18;" parent="1" vertex="1">
          <mxGeometry x="510" y="174" width="120" height="190" as="geometry" />
        </mxCell>
        <mxCell id="IOv0uIrEUTZNlMerogkg-37" value="20 N(≤17)" style="rounded=0;whiteSpace=wrap;html=1;fillColor=#dae8fc;strokeColor=#6c8ebf;fontSize=13;" parent="1" vertex="1">
          <mxGeometry x="510" y="364" width="60" height="15" as="geometry" />
        </mxCell>
        <mxCell id="IOv0uIrEUTZNlMerogkg-42" value="" style="endArrow=classic;html=1;rounded=0;exitX=1;exitY=0.5;exitDx=0;exitDy=0;entryX=0.5;entryY=0;entryDx=0;entryDy=0;" parent="1" source="IOv0uIrEUTZNlMerogkg-1" target="IOv0uIrEUTZNlMerogkg-36" edge="1">
          <mxGeometry width="50" height="50" relative="1" as="geometry">
            <mxPoint x="330" y="304" as="sourcePoint" />
            <mxPoint x="558" y="174" as="targetPoint" />
            <Array as="points">
              <mxPoint x="570" y="34" />
            </Array>
          </mxGeometry>
        </mxCell>
        <mxCell id="IOv0uIrEUTZNlMerogkg-60" value="NNN" style="edgeLabel;html=1;align=center;verticalAlign=middle;resizable=0;points=[];fontSize=18;" parent="IOv0uIrEUTZNlMerogkg-42" vertex="1" connectable="0">
          <mxGeometry x="0.4836" y="1" relative="1" as="geometry">
            <mxPoint x="-1" y="35" as="offset" />
          </mxGeometry>
        </mxCell>
        <mxCell id="IOv0uIrEUTZNlMerogkg-44" value="35" style="endArrow=none;html=1;rounded=0;labelPosition=left;verticalLabelPosition=middle;align=right;verticalAlign=middle;" parent="1" edge="1">
          <mxGeometry width="50" height="50" relative="1" as="geometry">
            <mxPoint x="70" y="524" as="sourcePoint" />
            <mxPoint x="80" y="524" as="targetPoint" />
          </mxGeometry>
        </mxCell>
        <mxCell id="IOv0uIrEUTZNlMerogkg-45" value="40" style="endArrow=none;html=1;rounded=0;labelPosition=left;verticalLabelPosition=middle;align=right;verticalAlign=middle;" parent="1" edge="1">
          <mxGeometry width="50" height="50" relative="1" as="geometry">
            <mxPoint x="70" y="574" as="sourcePoint" />
            <mxPoint x="80" y="574" as="targetPoint" />
          </mxGeometry>
        </mxCell>
        <mxCell id="IOv0uIrEUTZNlMerogkg-47" value="45" style="endArrow=none;html=1;rounded=0;labelPosition=left;verticalLabelPosition=middle;align=right;verticalAlign=middle;" parent="1" edge="1">
          <mxGeometry width="50" height="50" relative="1" as="geometry">
            <mxPoint x="70" y="624" as="sourcePoint" />
            <mxPoint x="80" y="624" as="targetPoint" />
          </mxGeometry>
        </mxCell>
        <mxCell id="IOv0uIrEUTZNlMerogkg-49" value="50" style="endArrow=none;html=1;rounded=0;labelPosition=left;verticalLabelPosition=middle;align=right;verticalAlign=middle;" parent="1" edge="1">
          <mxGeometry width="50" height="50" relative="1" as="geometry">
            <mxPoint x="70" y="674" as="sourcePoint" />
            <mxPoint x="80" y="674" as="targetPoint" />
          </mxGeometry>
        </mxCell>
        <mxCell id="IOv0uIrEUTZNlMerogkg-51" value="55" style="endArrow=none;html=1;rounded=0;labelPosition=left;verticalLabelPosition=middle;align=right;verticalAlign=middle;" parent="1" edge="1">
          <mxGeometry width="50" height="50" relative="1" as="geometry">
            <mxPoint x="70" y="724" as="sourcePoint" />
            <mxPoint x="80" y="724" as="targetPoint" />
          </mxGeometry>
        </mxCell>
        <mxCell id="IOv0uIrEUTZNlMerogkg-53" value="60" style="endArrow=none;html=1;rounded=0;labelPosition=left;verticalLabelPosition=middle;align=right;verticalAlign=middle;" parent="1" edge="1">
          <mxGeometry width="50" height="50" relative="1" as="geometry">
            <mxPoint x="70" y="774" as="sourcePoint" />
            <mxPoint x="80" y="774" as="targetPoint" />
          </mxGeometry>
        </mxCell>
        <mxCell id="IOv0uIrEUTZNlMerogkg-55" value="65" style="endArrow=none;html=1;rounded=0;labelPosition=left;verticalLabelPosition=middle;align=right;verticalAlign=middle;" parent="1" edge="1">
          <mxGeometry width="50" height="50" relative="1" as="geometry">
            <mxPoint x="70" y="824" as="sourcePoint" />
            <mxPoint x="80" y="824" as="targetPoint" />
          </mxGeometry>
        </mxCell>
        <mxCell id="IOv0uIrEUTZNlMerogkg-56" value="70" style="endArrow=none;html=1;rounded=0;labelPosition=left;verticalLabelPosition=middle;align=right;verticalAlign=middle;" parent="1" edge="1">
          <mxGeometry width="50" height="50" relative="1" as="geometry">
            <mxPoint x="70" y="874" as="sourcePoint" />
            <mxPoint x="80" y="874" as="targetPoint" />
          </mxGeometry>
        </mxCell>
        <mxCell id="IOv0uIrEUTZNlMerogkg-57" value="20 N(≥18)" style="rounded=0;whiteSpace=wrap;html=1;fillColor=#d5e8d4;strokeColor=#82b366;fontSize=13;" parent="1" vertex="1">
          <mxGeometry x="570" y="364" width="60" height="15" as="geometry" />
        </mxCell>
        <mxCell id="IOv0uIrEUTZNlMerogkg-58" value="" style="rounded=0;whiteSpace=wrap;html=1;fillColor=#dae8fc;strokeColor=#6c8ebf;" parent="1" vertex="1">
          <mxGeometry x="510" y="379" width="60" height="15" as="geometry" />
        </mxCell>
        <mxCell id="IOv0uIrEUTZNlMerogkg-59" value="" style="rounded=0;whiteSpace=wrap;html=1;fillColor=#d5e8d4;strokeColor=#82b366;" parent="1" vertex="1">
          <mxGeometry x="570" y="379" width="60" height="15" as="geometry" />
        </mxCell>
        <mxCell id="gc7l6ppwxDRWLLqOKeTT-1" value="75" style="endArrow=none;html=1;rounded=0;labelPosition=left;verticalLabelPosition=middle;align=right;verticalAlign=middle;" parent="1" edge="1">
          <mxGeometry width="50" height="50" relative="1" as="geometry">
            <mxPoint x="70" y="924" as="sourcePoint" />
            <mxPoint x="80" y="924" as="targetPoint" />
          </mxGeometry>
        </mxCell>
        <mxCell id="gc7l6ppwxDRWLLqOKeTT-2" value="80" style="endArrow=none;html=1;rounded=0;labelPosition=left;verticalLabelPosition=middle;align=right;verticalAlign=middle;" parent="1" edge="1">
          <mxGeometry width="50" height="50" relative="1" as="geometry">
            <mxPoint x="70" y="974" as="sourcePoint" />
            <mxPoint x="80" y="974" as="targetPoint" />
          </mxGeometry>
        </mxCell>
        <mxCell id="gc7l6ppwxDRWLLqOKeTT-3" value="85" style="endArrow=none;html=1;rounded=0;labelPosition=left;verticalLabelPosition=middle;align=right;verticalAlign=middle;" parent="1" edge="1">
          <mxGeometry width="50" height="50" relative="1" as="geometry">
            <mxPoint x="70" y="1024" as="sourcePoint" />
            <mxPoint x="80" y="1024" as="targetPoint" />
          </mxGeometry>
        </mxCell>
        <mxCell id="gc7l6ppwxDRWLLqOKeTT-4" value="90" style="endArrow=none;html=1;rounded=0;labelPosition=left;verticalLabelPosition=middle;align=right;verticalAlign=middle;" parent="1" edge="1">
          <mxGeometry width="50" height="50" relative="1" as="geometry">
            <mxPoint x="70" y="1074" as="sourcePoint" />
            <mxPoint x="80" y="1074" as="targetPoint" />
          </mxGeometry>
        </mxCell>
        <mxCell id="gc7l6ppwxDRWLLqOKeTT-5" value="95" style="endArrow=none;html=1;rounded=0;labelPosition=left;verticalLabelPosition=middle;align=right;verticalAlign=middle;" parent="1" edge="1">
          <mxGeometry width="50" height="50" relative="1" as="geometry">
            <mxPoint x="70" y="1124" as="sourcePoint" />
            <mxPoint x="80" y="1124" as="targetPoint" />
          </mxGeometry>
        </mxCell>
        <mxCell id="gc7l6ppwxDRWLLqOKeTT-6" value="100" style="endArrow=none;html=1;rounded=0;labelPosition=left;verticalLabelPosition=middle;align=right;verticalAlign=middle;" parent="1" edge="1">
          <mxGeometry width="50" height="50" relative="1" as="geometry">
            <mxPoint x="70" y="1174" as="sourcePoint" />
            <mxPoint x="80" y="1174" as="targetPoint" />
          </mxGeometry>
        </mxCell>
        <mxCell id="gc7l6ppwxDRWLLqOKeTT-7" value="105" style="endArrow=none;html=1;rounded=0;labelPosition=left;verticalLabelPosition=middle;align=right;verticalAlign=middle;" parent="1" edge="1">
          <mxGeometry width="50" height="50" relative="1" as="geometry">
            <mxPoint x="70" y="1224" as="sourcePoint" />
            <mxPoint x="80" y="1224" as="targetPoint" />
          </mxGeometry>
        </mxCell>
        <mxCell id="gc7l6ppwxDRWLLqOKeTT-9" value="Cohort 2&lt;br style=&quot;font-size: 18px;&quot;&gt;d(1)&lt;br style=&quot;font-size: 18px;&quot;&gt;2-66" style="rounded=0;whiteSpace=wrap;html=1;fillColor=#f8cecc;strokeColor=#b85450;fontSize=18;" parent="1" vertex="1">
          <mxGeometry x="370" y="174" width="120" height="660" as="geometry" />
        </mxCell>
        <mxCell id="gc7l6ppwxDRWLLqOKeTT-14" value="NTT" style="endArrow=classic;html=1;rounded=0;exitX=0.5;exitY=1;exitDx=0;exitDy=0;entryX=0.5;entryY=0;entryDx=0;entryDy=0;fontSize=18;" parent="1" source="IOv0uIrEUTZNlMerogkg-1" target="IOv0uIrEUTZNlMerogkg-24" edge="1">
          <mxGeometry x="0.5555" width="50" height="50" relative="1" as="geometry">
            <mxPoint x="330" y="224" as="sourcePoint" />
            <mxPoint x="380" y="174" as="targetPoint" />
            <Array as="points">
              <mxPoint x="360" y="104" />
              <mxPoint x="290" y="104" />
            </Array>
            <mxPoint as="offset" />
          </mxGeometry>
        </mxCell>
        <mxCell id="gc7l6ppwxDRWLLqOKeTT-15" value="" style="endArrow=classic;html=1;rounded=0;exitX=0.5;exitY=1;exitDx=0;exitDy=0;entryX=0.5;entryY=0;entryDx=0;entryDy=0;" parent="1" source="IOv0uIrEUTZNlMerogkg-1" target="gc7l6ppwxDRWLLqOKeTT-9" edge="1">
          <mxGeometry width="50" height="50" relative="1" as="geometry">
            <mxPoint x="330" y="224" as="sourcePoint" />
            <mxPoint x="380" y="174" as="targetPoint" />
            <Array as="points">
              <mxPoint x="360" y="104" />
              <mxPoint x="430" y="104" />
            </Array>
          </mxGeometry>
        </mxCell>
        <mxCell id="gc7l6ppwxDRWLLqOKeTT-19" value="NNT" style="edgeLabel;html=1;align=center;verticalAlign=middle;resizable=0;points=[];fontSize=18;" parent="gc7l6ppwxDRWLLqOKeTT-15" vertex="1" connectable="0">
          <mxGeometry x="0.5222" y="-1" relative="1" as="geometry">
            <mxPoint x="1" y="3" as="offset" />
          </mxGeometry>
        </mxCell>
        <mxCell id="gc7l6ppwxDRWLLqOKeTT-17" value="" style="endArrow=classic;html=1;rounded=0;exitX=0.006;exitY=0.537;exitDx=0;exitDy=0;exitPerimeter=0;entryX=0.5;entryY=0;entryDx=0;entryDy=0;" parent="1" source="IOv0uIrEUTZNlMerogkg-1" target="IOv0uIrEUTZNlMerogkg-23" edge="1">
          <mxGeometry width="50" height="50" relative="1" as="geometry">
            <mxPoint x="260" y="104" as="sourcePoint" />
            <mxPoint x="310" y="54" as="targetPoint" />
            <Array as="points">
              <mxPoint x="148" y="36" />
            </Array>
          </mxGeometry>
        </mxCell>
        <mxCell id="gc7l6ppwxDRWLLqOKeTT-18" value="TTT" style="edgeLabel;html=1;align=center;verticalAlign=middle;resizable=0;points=[];fontSize=18;" parent="gc7l6ppwxDRWLLqOKeTT-17" vertex="1" connectable="0">
          <mxGeometry x="-0.2798" y="-1" relative="1" as="geometry">
            <mxPoint x="-73" y="29" as="offset" />
          </mxGeometry>
        </mxCell>
        <mxCell id="gc7l6ppwxDRWLLqOKeTT-20" value="Cohort 2&lt;br style=&quot;font-size: 12px;&quot;&gt;d(2)&lt;br style=&quot;font-size: 12px;&quot;&gt;67-70" style="rounded=0;whiteSpace=wrap;html=1;fillColor=#e1d5e7;strokeColor=#9673a6;fontSize=12;" parent="1" vertex="1">
          <mxGeometry x="370" y="834" width="120" height="40" as="geometry" />
        </mxCell>
        <mxCell id="gc7l6ppwxDRWLLqOKeTT-22" value="Cohort 2&amp;nbsp;&lt;br style=&quot;font-size: 14px;&quot;&gt;(4)&lt;br style=&quot;font-size: 14px;&quot;&gt;21 N(≤14) | N(≤15)N(≤3)" style="rounded=0;whiteSpace=wrap;html=1;fillColor=#dae8fc;strokeColor=#6c8ebf;fontSize=14;" parent="1" vertex="1">
          <mxGeometry x="650" y="440" width="160" height="70" as="geometry" />
        </mxCell>
        <mxCell id="gc7l6ppwxDRWLLqOKeTT-23" value="" style="endArrow=classic;html=1;rounded=0;exitX=0.25;exitY=0;exitDx=0;exitDy=0;entryX=0;entryY=0.5;entryDx=0;entryDy=0;" parent="1" source="IOv0uIrEUTZNlMerogkg-26" target="gc7l6ppwxDRWLLqOKeTT-22" edge="1">
          <mxGeometry width="50" height="50" relative="1" as="geometry">
            <mxPoint x="90" y="610" as="sourcePoint" />
            <mxPoint x="140" y="560" as="targetPoint" />
          </mxGeometry>
        </mxCell>
        <mxCell id="gc7l6ppwxDRWLLqOKeTT-26" value="Cohort 2&amp;nbsp;&lt;br style=&quot;font-size: 14px;&quot;&gt;d(5)&lt;br&gt;21 N(≥16)&amp;nbsp;| N(≥15)N(≥4)" style="rounded=0;whiteSpace=wrap;html=1;fillColor=#d5e8d4;strokeColor=#82b366;fontSize=14;" parent="1" vertex="1">
          <mxGeometry x="650" y="280" width="160" height="70" as="geometry" />
        </mxCell>
        <mxCell id="gc7l6ppwxDRWLLqOKeTT-27" value="" style="endArrow=classic;html=1;rounded=0;entryX=0;entryY=1;entryDx=0;entryDy=0;exitX=1;exitY=0.5;exitDx=0;exitDy=0;" parent="1" source="IOv0uIrEUTZNlMerogkg-59" target="gc7l6ppwxDRWLLqOKeTT-26" edge="1">
          <mxGeometry width="50" height="50" relative="1" as="geometry">
            <mxPoint x="90" y="630" as="sourcePoint" />
            <mxPoint x="140" y="580" as="targetPoint" />
          </mxGeometry>
        </mxCell>
        <mxCell id="Xv_18o2ssJqcosBym-r6-1" value="Follow-up time in days" style="text;html=1;align=center;verticalAlign=middle;whiteSpace=wrap;rounded=0;rotation=-90;" vertex="1" parent="1">
          <mxGeometry x="-50" y="680" width="180" height="30" as="geometry" />
        </mxCell>
      </root>
    </mxGraphModel>
  </diagram>
</mxfile>
